# AST/ASF file generated using VICON BodyLanguage
# -----------------------------------------------
:version 1.10
:name VICON
:units
  mass 1.0
  length 0.45
  angle deg
:documentation
   .ast/.asf automatically generated from VICON data using
   VICON BodyBuilder and BodyLanguage model FoxedUp or BRILLIANT.MOD
:root
   order TX TY TZ RX RY RZ
   axis XYZ
   position 0 0 0  
   orientation 0 0 0 
:bonedata
  begin
     id 1 
     name lhipjoint
     direction 0.662698 -0.695252 0.27831 
     length 2.53073 
     axis 0 0 0  XYZ
  end
  begin
     id 2 
     name lfemur
     direction 0.34202 -0.939693 0  
     length 7.16147  
     axis 0 0 20  XYZ
    dof rx ry rz
    limits (-160.0 20.0)
           (-70.0 70.0)
           (-60.0 70.0)
  end
  begin
     id 3 
     name ltibia
     direction 0.34202 -0.939693 0   
     length 7.63967   
     axis 0 0 20   XYZ
    dof rx
    limits (-10.0 170.0)
  end
  begin
     id 4 
     name lfoot
     direction 0.0938457 -0.257721 0.961651   
     length 1.89793   
     axis -90 7.62852e-016 20   XYZ
    dof rx rz
    limits (-45.0 90.0)
           (-70.0 20.0)
  end
  begin
     id 5 
     name ltoes
     direction -0.00116841 -0.0030592 0.999995   
     length 0.955649   
     axis -90 7.62852e-016 20   XYZ
    dof rx
    limits (-90.0 20.0)
  end
  begin
     id 6 
     name rhipjoint
     direction -0.649445 -0.705948 0.282592   
     length 2.49238  
     axis 0 0 0  XYZ 
  end
  begin
     id 7 
     name rfemur
     direction -0.34202 -0.939693 0   
     length 6.90728   
     axis 0 0 -20   XYZ
    dof rx ry rz
    limits (-160.0 20.0)
           (-70.0 70.0)
           (-70.0 60.0)
  end
  begin
     id 8 
     name rtibia
     direction -0.34202 -0.939693 0   
     length 7.72868   
     axis 0 0 -20   XYZ
    dof rx
    limits (-10.0 170.0)
 end
 begin
     id 9 
     name rfoot
     direction -0.0920068 -0.252865 0.963117   
     length 1.97476  
     axis -90 -7.62852e-016 -20   XYZ
    dof rx rz
    limits (-45.0 90.0)
           (-20.0 70.0)
  end
  begin
     id 10 
     name rtoes
     direction 0.000391322 0.00230649 0.999997   
     length 0.992641   
     axis -90 -7.62852e-016 -20   XYZ
    dof rx
    limits (-90.0 20.0)
  end
  begin
     id 11 
     name lowerback
     direction -0.00875327 0.998321 -0.0572635   
     length 2.20024   
     axis 0 0 0   XYZ
    dof rx ry rz
    limits (-20.0 45.0)
           (-30.0 30.0)
           (-30.0 30.0)
  end
  begin
     id 12 
     name upperback
     direction 0.00753931 0.999972 -0.000360425   
     length 2.20538   
     axis 0 0 0   XYZ
    dof rx ry rz
    limits (-20.0 45.0)
           (-30.0 30.0)
           (-30.0 30.0)
  end
  begin
     id 13 
     name thorax
     direction 0.0117767 0.999601 0.0256663   
     length 2.21508   
     axis 0 0 0   XYZ
    dof rx ry rz
    limits (-20.0 45.0)
           (-30.0 30.0)
           (-30.0 30.0)
  end
  begin
     id 14 
     name lowerneck
     direction 0.060228 0.994909 0.0807986   
     length 1.7607   
     axis 0 0 0   XYZ
    dof rx ry rz
    limits (-20.0 45.0)
           (-30.0 30.0)
           (-30.0 30.0)
  end
  begin
     id 15 
     name upperneck
     direction -0.0563647 0.959594 -0.275685   
     length 1.75612   
     axis 0 0 0   XYZ
    dof rx ry rz
    limits (-20.0 45.0)
           (-30.0 30.0)
           (-30.0 30.0)
  end
  begin
     id 16
     name head
     direction -0.0161544 0.99458 -0.102714  
     length 1.79288  
     axis 0 0 0   XYZ
    dof rx ry rz
    limits (-20.0 45.0)
           (-30.0 30.0)
           (-30.0 30.0)
  end
  begin
     id 17 
     name lclavicle
     direction 0.93913 0.332189 -0.087669  
     length 3.52087  
     axis 0 0 0   XYZ
    dof ry rz
    limits (-20.0 10.0)
           (0.0 20.0)
  end
  begin
     id 18 
     name lhumerus
     direction 1 -4.48974e-011 -2.70836e-027   
     length 5.35289   
     axis -180 -30 -90   XYZ
    dof rx ry rz
    limits (-60.0 90.0)
           (-90.0 90.0)
           (-90.0 90.0)
  end
  begin
     id 19
     name lradius
     direction 1 -4.48961e-011 -9.76021e-027   
     length 3.27727   
     axis -180 -30 -90   XYZ
    dof rx
    limits (-10.0 170.0)
  end
  begin
     id 20
     name lwrist
     direction 1 -4.49103e-011 -2.23668e-026   
     length 1.63864   
     axis 1.44924e-014 90 90   XYZ
    dof ry
    limits (-180.0 0.0)
 end
  begin
     id 21 
     name lhand
     direction 1 3.0697e-005 0.000161777   
     length 0.54443   
     axis 2.85318e-014 90 90   XYZ
    dof rx rz
    limits (-90.0 90.0)
           (-45.0 45.0)
  end
  begin
     id 22 
     name lfingers
     direction 1 -4.49027e-011 -8.9447e-026   
     length 0.438912   
     axis 5.70628e-014 90 90   XYZ
    dof rx
    limits (0.0 90.0)
  end
  begin
     id 23
     name lthumb
     direction 0.707058 2.6516e-005 0.707156   
     length 0.630274   
     axis -90 45 -3.53137e-014   XYZ
    dof rx rz
    limits (-45.0 45.0)
           (-45.0 45.0)
  end
  begin
     id 24 
     name rclavicle
     direction -0.95274 0.284984 -0.105215   
     length 3.43401  
     axis 0 0 0   XYZ 
    dof ry rz
    limits (-10.0 20.0)
           (-20.0 0.0)
  end
  begin
     id 25 
     name rhumerus
     direction -0.999999 -0.000575019 -0.00106829  
     length 5.52077   
     axis -180 30 90   XYZ
    dof rx ry rz
    limits (-90.0 60.0)
           (-90.0 90.0)
           (-90.0 90.0)
  end
  begin
     id 26 
     name rradius
     direction -1 -4.4879e-011 -6.35415e-027   
     length 3.32364   
     axis -180 30 90   XYZ
    dof rx
    limits (-10.0 170.0)
  end
  begin
     id 27 
     name rwrist
     direction -1 -4.49048e-011 -9.98542e-027   
     length 1.66182   
     axis 6.32482e-015 -90 -90   XYZ
    dof ry
    limits (-180.0 0.0)
  end
  begin
     id 28
     name rhand
     direction -1 -4.48978e-011 -1.99771e-026   
     length 0.732235   
     axis 1.27479e-014 -90 -90   XYZ
    dof rx rz
    limits (-90.0 90.0)
           (-45.0 45.0)
  end
  begin
     id 29
     name rfingers
     direction -1 -4.49144e-011 -3.99245e-026   
     length 0.590347   
     axis 2.5496e-014 -90 -90   XYZ
    dof rx
    limits (0.0 90.0)
  end
  begin
     id 30
     name rthumb
     direction -0.707107 -6.35121e-011 0.707107   
     length 0.847624   
     axis -90 -45 -2.82974e-014   XYZ
    dof rx rz
    limits (-45.0 45.0)
           (-45.0 45.0)
  end
:hierarchy
  begin
    root lhipjoint rhipjoint lowerback
    lhipjoint lfemur
    lfemur ltibia
    ltibia lfoot
    lfoot ltoes
    rhipjoint rfemur
    rfemur rtibia
    rtibia rfoot
    rfoot rtoes
    lowerback upperback
    upperback thorax
    thorax lowerneck lclavicle rclavicle
    lowerneck upperneck
    upperneck head
    lclavicle lhumerus
    lhumerus lradius
    lradius lwrist
    lwrist lhand lthumb
    lhand lfingers
    rclavicle rhumerus
    rhumerus rradius
    rradius rwrist
    rwrist rhand rthumb
    rhand rfingers
  end

#!OML:ASF G:\Work\Work\Patient Classification 1\Elijah\terrain1\Elijah.ASF
:FULLY-SPECIFIED
:DEGREES
4278
root 16.129 20.7508 7.61294 544.662 -6.64207 -184.865
lowerback 13.0574 -1.46983 -6.20756
upperback 3.21129 -3.03074 3.12196
thorax -3.43576 -1.63977 7.30887
lowerneck -13.5181 9.20594 10.3103
upperneck 26.1264 18.5696 -16.1112
head 13.7068 8.34283 -4.61929
rclavicle -4.53229e-014 1.59028e-015
rhumerus -37.6241 6.84636 -82.3818
rradius 35.4103
rwrist -3.39365
rhand -12.758 22.9942
rfingers 7.12502
rthumb 13.3265 -6.55967
lclavicle -4.53229e-014 1.59028e-015
lhumerus -18.2944 -15.1083 88.2254
lradius 73.9814
lwrist 18.0162
lhand -12.2534 28.2061
lfingers 7.12502
lthumb 13.8128 57.7275
rfemur -65.0805 -7.81005 17.1999
rtibia 72.0019
rfoot -14.6247 -5.90091
rtoes -16.7338
lfemur 4.43907 -8.07776 -24.3885
ltibia 21.3456
lfoot 11.2826 -7.83837
ltoes -22.6822
4279
root 16.1438 20.812 7.47035 544.993 -6.51372 -184.735
lowerback 12.1368 -1.41437 -4.69299
upperback 3.69436 -2.76055 2.63011
thorax -2.57303 -1.56343 5.80509
lowerneck -13.3979 9.60297 10.6267
upperneck 25.3812 18.6873 -15.969
head 13.4006 8.40776 -4.58456
rclavicle -2.46493e-014 3.18055e-015
rhumerus -36.6243 5.29756 -82.6579
rradius 35.1645
rwrist -2.92271
rhand -12.7695 22.6546
rfingers 7.12502
rthumb 13.3153 -6.89996
lclavicle -2.46493e-014 3.18055e-015
lhumerus -18.2483 -16.7411 87.357
lradius 73.9919
lwrist 19.7056
lhand -13.2324 28.4684
lfingers 7.12502
lthumb 12.8692 58.0516
rfemur -64.7009 -7.34776 17.2737
rtibia 71.753
rfoot -14.5219 -6.226
rtoes -15.8229
lfemur 4.65386 -8.56069 -24.2854
ltibia 20.6675
lfoot 13.7195 -6.86508
ltoes -17.8758
4280
root 16.1609 20.8911 7.31151 545.34 -7.25335 -184.386
lowerback 12.5282 -1.68126 -3.87619
upperback 3.27773 -2.9934 3.05979
thorax -3.21124 -1.64292 5.86363
lowerneck -15.4522 9.46634 10.4679
upperneck 26.6785 18.5685 -15.6986
head 14.3286 8.21285 -4.40526
rclavicle 5.84427e-014 5.56597e-015
rhumerus -36.8923 5.47454 -82.1715
rradius 35.2525
rwrist -2.87377
rhand -12.4814 22.2936
rfingers 7.12502
rthumb 13.5931 -7.24266
lclavicle 5.84427e-014 5.56597e-015
lhumerus -19.7265 -17.042 87.9263
lradius 74.1999
lwrist 21.2685
lhand -13.5166 29.1498
lfingers 7.12502
lthumb 12.5952 58.7502
rfemur -64.034 -7.58311 17.631
rtibia 71.4428
rfoot -14.7191 -6.64931
rtoes -14.947
lfemur 4.77545 -9.45441 -23.739
ltibia 19.8955
lfoot 16.1628 -5.83184
ltoes -15.2782
4281
root 16.174 20.957 7.16774 545.837 -6.84702 -184.389
lowerback 12.0071 -1.40546 -2.99059
upperback 3.37443 -2.50659 2.85429
thorax -2.93571 -1.40969 5.04154
lowerneck -14.9477 12.0279 10.6746
upperneck 27.0058 17.6787 -15.2877
head 14.2381 6.50949 -4.80835
rclavicle -2.94201e-014 6.20208e-014
rhumerus -36.4037 4.32752 -82.0198
rradius 34.936
rwrist -2.76717
rhand -12.0135 21.632
rfingers 7.12502
rthumb 14.044 -7.87348
lclavicle -2.94201e-014 6.20208e-014
lhumerus -20.2379 -18.5289 87.7773
lradius 74.1827
lwrist 22.8658
lhand -13.8844 30.8821
lfingers 7.12502
lthumb 12.2406 60.5039
rfemur -63.8393 -7.05641 17.6724
rtibia 71.1459
rfoot -14.7872 -6.77831
rtoes -14.4877
lfemur 4.60257 -9.45581 -23.7577
ltibia 19.3558
lfoot 18.0751 -4.58983
ltoes -21.8671
4282
root 16.1868 21.0363 7.01817 546.303 -6.80227 -184.603
lowerback 11.7614 -1.39837 -2.44844
upperback 3.27287 -2.4134 2.76636
thorax -2.94406 -1.35472 4.61856
lowerneck -14.3098 12.2452 11.1949
upperneck 26.4127 18 -15.7402
head 14.0189 6.72545 -5.00555
rclavicle 1.15295e-014 -4.29375e-014
rhumerus -35.8352 3.67394 -81.8338
rradius 34.3161
rwrist -2.60605
rhand -11.8907 21.445
rfingers 7.12502
rthumb 14.1623 -8.05226
lclavicle 1.15295e-014 -4.29375e-014
lhumerus -21.2183 -19.3784 87.8852
lradius 74.1334
lwrist 24.1032
lhand -16.1346 28.1807
lfingers 7.12502
lthumb 10.0703 57.9197
rfemur -63.4247 -6.79364 17.413
rtibia 70.88
rfoot -15.1668 -7.02351
rtoes -14.5537
lfemur 4.39266 -9.84452 -23.9593
ltibia 18.9195
lfoot 20.6546 -3.71549
ltoes -23.1515
4283
root 16.1983 21.0898 6.86769 546.774 -6.87848 -184.804
lowerback 11.5342 -1.48161 -2.15169
upperback 3.20046 -2.47794 2.94379
thorax -2.8933 -1.3869 4.63677
lowerneck -16.5309 12.0444 10.3412
upperneck 27.5833 17.7441 -14.9128
head 14.7646 6.45224 -4.53982
rclavicle 2.14687e-014 3.18055e-015
rhumerus -35.2175 3.70993 -81.4542
rradius 34.1772
rwrist -2.69476
rhand -11.9701 21.5942
rfingers 7.12502
rthumb 14.0858 -7.90846
lclavicle 2.14687e-014 3.18055e-015
lhumerus -22.0379 -19.6585 88.2384
lradius 73.9321
lwrist 25.1262
lhand -16.5216 27.7211
lfingers 7.12502
lthumb 9.6969 57.4779
rfemur -63.1404 -6.81017 17.2379
rtibia 70.7457
rfoot -15.6059 -7.10296
rtoes -14.8016
lfemur 4.02815 -10.3965 -24.1162
ltibia 18.6858
lfoot 22.9457 -2.84758
ltoes -22.2818
4284
root 16.2166 21.1558 6.72131 547.266 -7.05812 -184.993
lowerback 11.352 -1.56178 -2.12101
upperback 3.04804 -2.5638 3.2977
thorax -2.92865 -1.42653 5
lowerneck -15.4984 12.6241 9.99424
upperneck 26.752 18.7805 -15.2482
head 14.3503 6.91879 -4.3985
rclavicle -4.33351e-014 2.22639e-014
rhumerus -34.7718 4.05615 -80.9243
rradius 34.3245
rwrist -2.86857
rhand -12.1147 21.9739
rfingers 7.12502
rthumb 13.9464 -7.53833
lclavicle -4.33351e-014 2.22639e-014
lhumerus -22.9193 -19.8492 88.7835
lradius 73.6447
lwrist 25.9976
lhand -15.8998 28.8397
lfingers 7.12502
lthumb 10.2968 58.5677
rfemur -62.7803 -6.78459 17.05
rtibia 70.56
rfoot -16.1099 -7.26683
rtoes -14.336
lfemur 3.6047 -11.1177 -24.1995
ltibia 18.5261
lfoot 25.329 -1.95122
ltoes -18.5595
4285
root 16.2397 21.2277 6.58225 547.683 -7.43343 -185.031
lowerback 11.3033 -1.73507 -1.91752
upperback 2.68894 -2.73547 3.5976
thorax -3.25374 -1.49214 5.2337
lowerneck -15.8905 12.0657 10.4731
upperneck 27.449 17.8516 -15.2619
head 14.647 6.49714 -4.70812
rclavicle -4.77083e-015 2.8625e-014
rhumerus -34.6975 4.26838 -80.5484
rradius 34.2906
rwrist -2.81346
rhand -12.3908 22.576
rfingers 7.12502
rthumb 13.6804 -6.95438
lclavicle -4.77083e-015 2.8625e-014
lhumerus -24.351 -20.1684 89.3038
lradius 73.4629
lwrist 26.733
lhand -15.4659 29.7439
lfingers 7.12502
lthumb 10.7154 59.4507
rfemur -62.3082 -6.8902 17.0675
rtibia 70.3509
rfoot -16.7112 -7.53993
rtoes -13.9303
lfemur 3.06995 -11.9488 -24.075
ltibia 18.763
lfoot 26.5346 -1.23703
ltoes -19.573
4286
root 16.2537 21.2975 6.42956 547.904 -7.45713 -185.013
lowerback 11.0554 -1.81787 -1.40373
upperback 2.63233 -2.78497 3.71611
thorax -3.18956 -1.52161 5.06143
lowerneck -15.8955 12.5977 9.92059
upperneck 27.1942 18.6829 -14.7738
head 14.5363 6.88943 -4.21124
rclavicle -2.82274e-014 6.99722e-014
rhumerus -34.49 4.39827 -80.3614
rradius 34.4694
rwrist -2.94215
rhand -12.2198 22.4136
rfingers 7.12502
rthumb 13.8452 -7.10556
lclavicle -2.82274e-014 6.99722e-014
lhumerus -25.4069 -20.5369 89.6051
lradius 73.1732
lwrist 27.1304
lhand -14.6903 29.0183
lfingers 7.12502
lthumb 11.4634 58.6849
rfemur -61.6467 -6.74513 17.1375
rtibia 70.1241
rfoot -17.2614 -7.76889
rtoes -13.6627
lfemur 2.77441 -12.2057 -24.0078
ltibia 19.1234
lfoot 27.1543 -1.14484
ltoes -24.1275
4287
root 16.2737 21.3574 6.30033 548.284 -7.74712 -185.253
lowerback 11.0322 -1.90043 -1.22911
upperback 2.50455 -2.86479 3.84439
thorax -3.30421 -1.55699 5.11169
lowerneck -16.4345 12.3397 10.3848
upperneck 27.5742 18.2783 -15.0646
head 14.8584 6.67417 -4.49237
rclavicle -1.86858e-014 4.6118e-014
rhumerus -34.2947 4.54154 -80.1178
rradius 34.8085
rwrist -3.4361
rhand -11.9198 22.1832
rfingers 7.12502
rthumb 14.1343 -7.31602
lclavicle -1.86858e-014 4.6118e-014
lhumerus -26.3286 -20.9552 90.0569
lradius 72.798
lwrist 27.0329
lhand -14.5342 29.0566
lfingers 7.12502
lthumb 11.614 58.7147
rfemur -61.2576 -6.8889 16.9766
rtibia 69.931
rfoot -17.6114 -7.91793
rtoes -12.9312
lfemur 2.12421 -12.2216 -24.0421
ltibia 19.8172
lfoot 28.7957 -1.53847
ltoes -11.7673
